<svg xmlns="http://www.w3.org/2000/svg" xmlns:xlink="http://www.w3.org/1999/xlink" width="868.5" height="2131.938" viewBox="0 0 868.5 2131.938">
  <defs>
    <clipPath id="clip-path">
      <rect id="Rettangolo_519" data-name="Rettangolo 519" width="868.5" height="986.763" fill="#d32f30"/>
    </clipPath>
    <clipPath id="clip-path-2">
      <path id="Tracciato_89" data-name="Tracciato 89" d="M0,0,877.11.668l.554,728.541L.554,728.54Z" transform="translate(0 0)" fill="#fff"/>
    </clipPath>
  </defs>
  <g id="Raggruppa_542" data-name="Raggruppa 542" transform="translate(-7495.144 -2907)">
    <rect id="Rettangolo_498" data-name="Rettangolo 498" width="868.5" height="741.69" transform="translate(7495.144 2907)" fill="#d32f30"/>
    <rect id="Rettangolo_497" data-name="Rettangolo 497" width="868.5" height="1545.249" transform="translate(7495.144 3493.69)" fill="#003f7a"/>
    <g id="Gruppo_di_maschere_5" data-name="Gruppo di maschere 5" transform="translate(7495.144 2963.697)" clip-path="url(#clip-path)">
      <g id="Raggruppa_173" data-name="Raggruppa 173" transform="translate(213.753 -102.306) rotate(21)">
        <g id="Raggruppa_169" data-name="Raggruppa 169" transform="translate(0 0)" clip-path="url(#clip-path-2)">
          <path id="Tracciato_61" data-name="Tracciato 61" d="M442.665,630.939c63.492-14.46,126.454-30.9,186.688-56.209,79.8-33.532,147.514-82.13,193.708-157.165q65.434-106.289,51.248-230.58c-1.086-9.668-2.447-19.246-4.464-28.743q-.609-2.87-1.214-5.748A507.847,507.847,0,0,0,735.059,0c-49.4,158.121-135.314,293.16-256.591,405.611C361.979,513.623,226.448,589.367,76.692,640.487c-23.036,7.863-46.5,14.47-69.733,21.76-2.8.877-5,1.065-6.96-.128a507.138,507.138,0,0,0,47.412,65.9c24.183-7.089,47.9-14.187,71.746-20.794,106.845-29.6,215.475-51.679,323.507-76.283" transform="translate(0.504 0.56)" fill="#fff"/>
        </g>
      </g>
    </g>
  </g>
</svg>
